#tb 0: 1/25
#media_type 0: video
#codec_id 0: rawvideo
#dimensions 0: 352x288
#sar 0: 0/1
0,          0,          0,        1,   405504, 0xa00fbb60
0,          1,          1,        1,   405504, 0x4ea03857
0,          2,          2,        1,   405504, 0xc7a56258
0,          3,          3,        1,   405504, 0x95fa1259
0,          4,          4,        1,   405504, 0xa7b32f2a
0,          5,          5,        1,   405504, 0xd628b760
0,          6,          6,        1,   405504, 0xb84a728d
0,          7,          7,        1,   405504, 0x772a75ac
0,          8,          8,        1,   405504, 0x887f7766
0,          9,          9,        1,   405504, 0x488d41f4
0,         10,         10,        1,   405504, 0x0dddb28b
0,         11,         11,        1,   405504, 0xdedaf7d0
0,         12,         12,        1,   405504, 0xab9959c0
0,         13,         13,        1,   405504, 0x47ef4608
0,         14,         14,        1,   405504, 0x7717f5d6
0,         15,         15,        1,   405504, 0x3f8f3032
0,         16,         16,        1,   405504, 0xa3e50209
0,         17,         17,        1,   405504, 0x2f28b83c
0,         18,         18,        1,   405504, 0xa55a202c
0,         19,         19,        1,   405504, 0xcc1418a6
0,         20,         20,        1,   405504, 0x8c397728
0,         21,         21,        1,   405504, 0x01901fae
0,         22,         22,        1,   405504, 0x56b3dbfa
0,         23,         23,        1,   405504, 0x17022a72
0,         24,         24,        1,   405504, 0x39ab757c
0,         25,         25,        1,   405504, 0xb684ef3f
0,         26,         26,        1,   405504, 0xe84f9f5b
0,         27,         27,        1,   405504, 0xdd2214e7
0,         28,         28,        1,   405504, 0x3852da52
0,         29,         29,        1,   405504, 0xf659ae91
0,         30,         30,        1,   405504, 0xf584e2d4
0,         31,         31,        1,   405504, 0x6412a871
0,         32,         32,        1,   405504, 0x1db32853
0,         33,         33,        1,   405504, 0x3b763e50
0,         34,         34,        1,   405504, 0xd26fd71b
0,         35,         35,        1,   405504, 0xafbf7d3a
0,         36,         36,        1,   405504, 0x319b8813
0,         37,         37,        1,   405504, 0x267e2a07
0,         38,         38,        1,   405504, 0x4cafd357
0,         39,         39,        1,   405504, 0x1df1ccee
0,         40,         40,        1,   405504, 0x489fe240
0,         41,         41,        1,   405504, 0x2fb707f7
0,         42,         42,        1,   405504, 0xf08a13e7
0,         43,         43,        1,   405504, 0x7e7e9eb1
0,         44,         44,        1,   405504, 0x3b20d724
0,         45,         45,        1,   405504, 0x04ed6163
0,         46,         46,        1,   405504, 0xd749b67b
0,         47,         47,        1,   405504, 0x55849519
0,         48,         48,        1,   405504, 0x4768fce0
0,         49,         49,        1,   405504, 0xb910861e
